<?xml version="1.0" standalone="no"?>
<!DOCTYPE svg PUBLIC "-//W3C//DTD SVG 1.1//EN" "http://www.w3.org/Graphics/SVG/1.1/DTD/svg11.dtd" >
<svg xmlns="http://www.w3.org/2000/svg">
<metadata></metadata>
<defs>
<font id="adoniscitalic" horiz-adv-x="1095" >
<font-face units-per-em="2048" ascent="1468" descent="-580" />
<missing-glyph horiz-adv-x="477" />
<glyph horiz-adv-x="0" />
<glyph horiz-adv-x="682" />
<glyph unicode=" "  horiz-adv-x="477" />
<glyph unicode="&#x09;" horiz-adv-x="477" />
<glyph unicode="&#xa0;" horiz-adv-x="477" />
<glyph unicode="!" horiz-adv-x="630" d="M53 74q0 60 37 99.5t86 39.5q38 0 62 -27t24 -69q0 -52 -37 -92.5t-84 -40.5q-37 0 -62.5 26.5t-25.5 63.5zM190 360l158 807q6 31 11 71.5t8 49.5q38 150 133 150q26 0 55 -29q31 -39 4 -117l-41 -123l-266 -809h-62z" />
<glyph unicode="&#x22;" horiz-adv-x="692" d="M86 1036l16 269q0 19 4 55q1 10 4 25t3 16q28 108 116 108q45 0 61 -24.5t3 -79.5q-2 -4 -5.5 -17.5t-6.5 -21.5q-1 -7 -4.5 -15t-9 -20.5t-9.5 -21.5l-115 -273h-57zM410 1036l16 269q1 28 6.5 59.5t5.5 38.5q15 56 43.5 81t73.5 25q44 0 59 -24.5t2 -79.5 q-1 -3 -3.5 -14.5t-4.5 -20.5q-5 -9 -26 -63l-111 -271h-61z" />
<glyph unicode="#" horiz-adv-x="1284" d="M90 403l35 86h250l112 510h-254l25 82h248l88 410h94l-86 -410h369l84 410h94l-84 -410h250l-25 -82h-243l-113 -510h250l-29 -86h-244l-92 -411h-98l90 411h-367l-90 -411h-98l92 411h-258zM467 489h369l114 510h-368z" />
<glyph unicode="$" horiz-adv-x="1114" d="M53 274q0 59 32.5 94t80.5 35q36 0 60 -23.5t24 -78.5q0 -39 3 -67.5t12 -58.5t25.5 -49t45.5 -33t70 -17l135 586q-15 10 -56.5 33.5t-68.5 40t-64 49.5t-59 67.5t-38.5 88t-16.5 116.5q0 90 35.5 162.5t90 115.5t122.5 71t131 37.5t118 6.5l39 170q4 17 19.5 32 t40.5 15q36 0 43.5 -12t1.5 -35l-39 -172q42 1 92.5 -12t100.5 -38t83 -69.5t33 -99.5q0 -56 -27 -87.5t-67 -31.5q-82 0 -88 94q-3 63 -39.5 107t-112.5 47l-131 -537q46 -22 73.5 -36.5t71.5 -40t71 -48t59 -56t50.5 -68t31 -80t12.5 -95.5q0 -85 -36 -158.5t-95.5 -124 t-134.5 -86t-154 -50t-152 -9.5l-30 -131q-12 -45 -64 -45q-50 0 -39 43l35 139q-34 3 -74.5 14t-86.5 35t-83 56.5t-61.5 83t-24.5 110.5zM424 1094q0 -43 15 -80.5t32 -59.5t47 -44t41 -27.5l33 -16.5l123 500q-129 6 -210 -66t-81 -206zM508 66q69 -3 128.5 12t108 48.5 t77 94t28.5 141.5q0 36 -10.5 67.5t-26 53t-40 43t-44.5 34t-48 30.5t-42 28z" />
<glyph unicode="%" horiz-adv-x="1363" d="M88 1042q0 99 36.5 182.5t95 135.5t129 81t140.5 29q32 0 63.5 -6.5t66 -25t60 -47t42 -77.5t16.5 -112q0 -101 -37 -185t-96 -136t-129 -80.5t-141 -28.5q-24 0 -52.5 6.5t-64 25.5t-63.5 48t-47 78.5t-19 111.5zM172 -49q0 16 10 33l981 1458q22 35 58 35t36 -39 q0 -19 -10 -33l-981 -1458q-23 -33 -57 -33q-12 0 -24.5 10.5t-12.5 26.5zM231 1036q0 -77 32.5 -129.5t105.5 -52.5q68 0 120.5 52.5t78.5 132.5t26 169q0 181 -139 181q-68 0 -120 -52.5t-78 -132t-26 -168.5zM686 176q0 99 36.5 182.5t95 135.5t129 81t140.5 29 q32 0 63.5 -6.5t66 -25t60 -47t42 -77.5t16.5 -112q0 -101 -37 -185t-96 -136t-129 -80.5t-141 -28.5q-24 0 -52.5 6.5t-64 25.5t-63.5 48t-47 78.5t-19 111.5zM829 170q0 -77 32.5 -129.5t105.5 -52.5q68 0 120.5 52.5t78.5 132.5t26 169q0 180 -139 180q-68 0 -120 -52 t-78 -131.5t-26 -168.5z" />
<glyph unicode="&#x26;" horiz-adv-x="1423" d="M145 283q0 75 19 136.5t67 126.5t133.5 130.5t215.5 138.5q-36 70 -52 106.5t-30.5 95t-14.5 122.5q0 79 40.5 144.5t106 107t144 64t158.5 22.5q127 0 206 -54t79 -161q0 -50 -22.5 -98t-57.5 -86.5t-94.5 -82.5t-114.5 -77t-137 -78l272 -478q30 35 59 99t29 104 q0 39 -49 39q-25 0 -25 23q0 47 94 47h146q33 0 50 -9.5t17 -35.5q0 -25 -36 -25q-22 0 -43 -18t-52 -68q-88 -139 -153 -215q26 -85 96 -167.5t113 -82.5q3 0 16.5 0.5t20.5 0t17 -2.5t14.5 -8t4.5 -16q0 -49 -93 -52h-40q-86 0 -155 45t-138 142q-191 -191 -444 -191 q-169 0 -268 88t-99 224zM332 362q0 -128 70.5 -202t211.5 -74q174 0 312 135l-310 531q-57 -31 -99.5 -62t-88.5 -78.5t-71 -111t-25 -138.5zM653 1180q0 -56 25.5 -126t50.5 -112l25 -41q307 167 307 348q0 73 -43 112.5t-121 39.5q-69 0 -119 -19t-76 -52t-37.5 -70 t-11.5 -80z" />
<glyph unicode="'" horiz-adv-x="366" d="M106 1036l15 269q5 109 31 156.5t98 47.5q41 0 55 -17.5t14 -53.5q0 -42 -38 -129l-121 -273h-54z" />
<glyph unicode="(" horiz-adv-x="724" d="M12 266q0 123 18 237t46 206.5t73 179.5t89 152.5t103.5 130t106.5 108t109 89.5t100.5 71t90.5 57q16 12 26 12q21 0 21 -18q0 -10 -9.5 -22.5t-18.5 -19.5l-9 -7q-61 -48 -109 -91t-110.5 -110t-110 -134t-96.5 -160t-80.5 -192t-51.5 -226t-20 -265 q0 -202 31.5 -345.5t93.5 -276.5q12 -17 12 -27q0 -21 -18 -21q-10 0 -22.5 9t-19.5 19l-7 9q-84 90 -161 280.5t-77 354.5z" />
<glyph unicode=")" horiz-adv-x="724" d="M12 -397q0 10 9 22.5t19 19.5l9 7q61 48 109 91t110.5 110t110 134t96.5 160t80.5 191.5t51.5 225.5t20 265q0 203 -31.5 346.5t-93.5 276.5q-13 17 -13 27q0 20 19 20q10 0 22.5 -9.5t19.5 -18.5l7 -9q84 -90 161 -280.5t77 -354.5q0 -123 -18 -237t-46 -206t-73 -179.5 t-89 -153t-103.5 -130t-106.5 -107.5t-109.5 -89t-100.5 -71t-90 -57q-16 -13 -26 -13q-21 0 -21 19z" />
<glyph unicode="*" horiz-adv-x="868" d="M193 948q0 38 33 66t81 41l182 49v37l-182 49q-48 14 -81 41t-33 65q0 29 21.5 48.5t47.5 19.5q58 0 113 -55l133 -138l29 21l-50 182q-15 61 1.5 110.5t66.5 49.5t66.5 -49.5t1.5 -110.5l-50 -182l29 -21l133 138q55 55 113 55q26 0 48 -19.5t22 -48.5q0 -38 -33.5 -65 t-81.5 -41l-182 -49v-37l182 -49q48 -14 81.5 -41.5t33.5 -65.5q0 -29 -21.5 -48t-48.5 -19q-58 0 -113 55l-133 137l-29 -20l50 -183q15 -60 -1.5 -109.5t-66.5 -49.5t-66.5 49.5t-1.5 109.5l50 183l-29 20l-133 -137q-55 -55 -113 -55q-26 0 -47.5 19t-21.5 48z" />
<glyph unicode="+" horiz-adv-x="1208" d="M143 545v129h400v397h129v-397h397v-129h-397v-398h-129v398h-400z" />
<glyph unicode="," horiz-adv-x="514" d="M23 -330q79 34 133.5 98.5t54.5 137.5q0 44 -33 100t-33 96q0 52 33.5 87.5t89.5 35.5q115 0 115 -123q0 -90 -35.5 -174.5t-89.5 -143.5t-112 -99t-109 -56z" />
<glyph unicode="-" horiz-adv-x="796" d="M147 449v112h537v-112h-537z" />
<glyph unicode="." horiz-adv-x="514" d="M150 82q0 64 35.5 97.5t82.5 33.5q44 0 72.5 -29t28.5 -73q0 -59 -34.5 -93t-84.5 -34q-41 0 -70.5 24.5t-29.5 73.5z" />
<glyph unicode="/" horiz-adv-x="808" d="M-82 -383l1169 1896l70 -34l-1167 -1899z" />
<glyph unicode="0" d="M39 373q0 181 42 352.5t113.5 304t162.5 233t193 154t200 53.5q138 0 223.5 -99t85.5 -290q0 -146 -30 -290.5t-81 -266t-121 -227t-148.5 -178.5t-164.5 -114.5t-168 -41.5q-147 0 -227 114t-80 296zM229 379q0 -59 8.5 -111t26.5 -99t53.5 -75t83.5 -28 q83 0 158.5 65.5t130.5 172t96 239t61.5 270.5t20.5 262q0 289 -172 289q-93 0 -172.5 -63.5t-132.5 -166t-90.5 -233.5t-54.5 -263.5t-17 -258.5z" />
<glyph unicode="1" d="M229 41q0 35 50 35q24 0 40.5 25.5t30.5 82.5l217 906q8 36 8 63q0 20 -9 26.5t-36 6.5q-15 0 -69 -19.5t-72 -19.5q-24 0 -24 29q0 22 36 47q121 89 256 174q87 55 144 55q30 0 30 -35q0 -11 -8 -43l-280 -1186q-13 -60 -13 -65q0 -47 35 -47q33 0 33 -23q0 -53 -94 -53 h-211q-64 0 -64 41z" />
<glyph unicode="2" d="M31 33q0 36 15 78.5t30 70t45 74.5q72 114 163 205t216 188q25 19 67.5 51t65 49.5t58 46.5t54.5 50t44 51t38.5 58t27 63.5t19 75.5t5.5 86q0 96 -47 150t-162 54q-84 0 -152.5 -63.5t-68.5 -169.5q0 -76 -18 -117t-75 -41q-88 0 -88 101q0 57 30 118t73 99 q95 86 191 122.5t231 36.5q78 0 136 -24t89.5 -64t46 -85.5t14.5 -96.5q0 -79 -32.5 -155t-71.5 -129.5t-123.5 -124.5t-133.5 -105.5t-156 -106.5l-19.5 -13.5t-17 -11.5l-19.5 -13q-55 -38 -122 -97.5t-125 -132.5t-58 -116q0 -9 2.5 -15t7.5 -9.5t10 -5.5t14 -3t14.5 -1 t16 0.5t15.5 0.5h284q87 0 126.5 12t78.5 49q7 7 17 16.5t13.5 13t9.5 8.5t9.5 6t8.5 2t12 1q22 0 22 -26q0 -59 -39 -142q-32 -68 -67.5 -85t-118.5 -17h-514h-6q-21 0 -31.5 0.5t-25.5 3.5t-22 10t-7 19z" />
<glyph unicode="3" d="M33 250q0 72 30.5 118t90.5 46q28 0 51.5 -15t23.5 -53q0 -25 -6 -65.5t-6 -63.5q0 -73 48 -122.5t141 -49.5q82 0 147 35.5t104 95.5t59.5 134t20.5 157q0 124 -61.5 190t-155.5 66q-24 0 -63 -8t-51 -8q-44 0 -44 59q0 22 8 35.5t24 17.5t29 5t34 -1t28 -2h62 q152 0 239.5 93.5t87.5 273.5q0 217 -176 217q-56 0 -98.5 -15.5t-70.5 -45t-44 -55.5t-32 -64q-36 -82 -95 -82q-77 0 -77 82q0 62 59 122t164 100t223 40q50 0 96 -7.5t94.5 -28.5t84 -53t58.5 -86t23 -124q0 -90 -38.5 -165t-102 -123.5t-130 -79t-138.5 -46.5v-8 q42 -4 86.5 -23t87.5 -53.5t70.5 -92.5t27.5 -130q0 -139 -74 -255t-203 -182.5t-284 -66.5q-63 0 -123 17t-112.5 50.5t-84.5 90.5t-32 129z" />
<glyph unicode="4" d="M88 492q0 41 54.5 140t105.5 171q113 161 273 320.5t292 253t188 93.5q31 0 34.5 -24.5t-8.5 -58.5q-2 -8 -3 -13l-195 -829h62q16 0 24 -1t16.5 -8t8.5 -20q0 -74 -76 -74h-61l-60 -254q-12 -56 -12 -65q0 -47 35 -47q33 0 33 -23q0 -53 -88 -53h-217q-64 0 -64 41 q0 19 11.5 27t37.5 8q32 0 44 19.5t28 88.5l61 260h-491q-16 0 -24 8.5t-8.5 15.5t-0.5 24zM248 582q0 -37 61 -37h332l137 581q20 86 -8 86q-32 0 -121.5 -78.5t-177.5 -187.5q-80 -98 -151.5 -207t-71.5 -157z" />
<glyph unicode="5" d="M41 250q0 72 30.5 118t90.5 46q28 0 52 -15t24 -53q0 -25 -6.5 -65.5t-6.5 -63.5q0 -83 39 -127.5t133 -44.5q105 0 187 69t123 174t41 224q0 56 -8.5 100t-29 84.5t-62.5 63t-103 22.5q-87 0 -199 -57q-6 -3 -21 -13t-27 -15t-24 -5q-17 0 -24.5 4.5t-7.5 20.5 q0 18 3.5 32t12.5 37t16 45l177 584q3 11 9 18t17 9.5t16 3.5t23 0.5t21 -0.5h467q40 0 53.5 -7.5t13.5 -23.5q0 -87 -76 -127q-27 -14 -86 -14h-411l-129 -443q102 41 247 41q48 0 92.5 -8.5t89 -31t77 -57t53 -92t20.5 -130.5q0 -112 -46 -220t-122 -189t-180.5 -131 t-216.5 -50q-165 0 -253.5 74.5t-88.5 212.5z" />
<glyph unicode="6" d="M94 336q0 76 16 167t57 206t101.5 221.5t161 213.5t225.5 183q96 59 201 92t158 33q2 0 12.5 0.5t15 0l13.5 -1.5t14 -4.5t10.5 -8.5t8 -13.5t2.5 -19.5q0 -8 -3 -14t-9.5 -10t-13 -7t-17.5 -5.5t-18.5 -4t-21 -3.5t-20.5 -3q-215 -40 -397 -238q-136 -149 -211 -383 q136 127 309 127q34 0 66.5 -5.5t74.5 -24.5t72.5 -50t52 -89t21.5 -134q0 -154 -76.5 -293t-203.5 -222t-269 -83q-79 0 -139.5 24.5t-96 62t-58 89t-30.5 99t-8 98.5zM279 270q0 -97 46.5 -159t145.5 -62q69 0 128 46.5t96.5 119t58 157.5t20.5 167q0 56 -12.5 97 t-30.5 63t-44.5 35t-48.5 16.5t-48 3.5q-64 0 -131.5 -41.5t-108.5 -108.5q-71 -115 -71 -334z" />
<glyph unicode="7" d="M129 20q0 11 18 41l730 1063q61 86 61 125q0 10 -7.5 16t-22.5 8t-27 2.5t-34 -0.5t-30 -1h-199q-157 0 -219 -60q-47 -47 -75 -47q-21 0 -21 27q0 54 33 141q13 33 27.5 54.5t26 33t35.5 17t37.5 6t49.5 0.5h23h491q8 0 23.5 0.5t22.5 0.5t18.5 -1t16.5 -4t11 -7.5 t8 -12.5t2 -19q0 -48 -100 -207l-704 -1126q-3 -4 -11 -16.5t-11 -17.5t-10.5 -13.5t-13 -12.5t-13.5 -7t-17 -3h-92h-4h-5t-4.5 0.5t-5.5 2t-4 3.5t-3 5.5t-1 8.5z" />
<glyph unicode="8" d="M41 307q0 41 6 82.5t31 104t66.5 113.5t122.5 99t190 72v8q-95 36 -147 108.5t-52 172.5q0 114 67 207t164 137q125 57 285 57q43 0 83 -5.5t89.5 -24t85.5 -48t61 -84t25 -126.5q0 -87 -35 -161.5t-91.5 -124.5t-121.5 -82.5t-133 -45.5v-6q66 -12 116.5 -45t78 -76.5 t40.5 -87.5t13 -86q0 -90 -39 -178t-107.5 -158t-172.5 -113t-224 -43q-90 0 -161.5 20.5t-115.5 53t-72.5 77.5t-40 89.5t-11.5 93.5zM246 301q0 -242 205 -242q141 0 235 125t94 340q0 90 -50.5 146.5t-129.5 56.5q-94 0 -165 -37t-111 -100t-59 -135.5t-19 -153.5z M451 1038q0 -63 15 -110t39.5 -71t50.5 -35t54 -11q35 0 54 1.5t49 12t61 31.5q31 22 62.5 60.5t60.5 116t29 167.5q0 91 -45 138.5t-144 47.5q-95 0 -161.5 -49t-96 -126t-28.5 -173z" />
<glyph unicode="9" d="M49 29q0 8 3 14t9.5 10t13 7t17.5 5.5t18.5 4t21 3.5t20.5 3q224 42 401 235q153 169 207 385q-153 -143 -305 -143q-41 0 -78 7.5t-77.5 29t-70 56.5t-48.5 94t-19 137q0 112 41 219.5t112.5 190t175.5 133t222 50.5q77 0 137.5 -24.5t96 -62.5t58.5 -89.5t31 -99 t8 -96.5q0 -81 -13.5 -170t-52 -204.5t-98 -220t-162.5 -212t-235 -185.5q-98 -58 -202 -91t-156 -33q-2 0 -12.5 -0.5t-15 0l-13.5 1.5t-14 4.5t-10.5 8.5t-8 13.5t-2.5 19.5zM362 895q0 -128 48.5 -177.5t130.5 -49.5q70 0 147.5 58.5t114.5 131.5q29 58 43 151.5 t14 153.5q0 96 -43 158.5t-129 62.5q-81 0 -145.5 -44t-102.5 -116t-58 -156.5t-20 -172.5z" />
<glyph unicode=":" horiz-adv-x="514" d="M72 74q0 64 35.5 97.5t82.5 33.5q44 0 72.5 -29.5t28.5 -73.5q0 -59 -34.5 -93t-84.5 -34q-41 0 -70.5 25t-29.5 74zM272 897q0 64 36 97.5t83 33.5q44 0 72.5 -29t28.5 -73q0 -59 -34.5 -93t-84.5 -34q-41 0 -71 24.5t-30 73.5z" />
<glyph unicode=";" horiz-adv-x="581" d="M2 -330q79 34 133.5 98.5t54.5 137.5q0 44 -32.5 99.5t-32.5 96.5q0 52 33.5 87.5t89.5 35.5q114 0 114 -123q0 -90 -35.5 -174.5t-89.5 -143.5t-112 -99t-109 -56zM272 897q0 64 36 97.5t83 33.5q44 0 72.5 -29t28.5 -73q0 -59 -34.5 -93t-84.5 -34q-41 0 -71 24.5 t-30 73.5z" />
<glyph unicode="&#x3c;" horiz-adv-x="1349" d="M74 659l1085 582l31 -94l-932 -488l870 -446l-30 -94z" />
<glyph unicode="=" horiz-adv-x="1345" d="M186 387v121h1037v-121h-1037zM186 752v122h1037v-122h-1037z" />
<glyph unicode="&#x3e;" horiz-adv-x="1200" d="M160 213l932 487l-871 447l31 94l1024 -541l-1086 -581z" />
<glyph unicode="?" horiz-adv-x="983" d="M209 74q0 60 37 99.5t86 39.5q38 0 62 -27t24 -69q0 -52 -37 -92.5t-84 -40.5q-37 0 -62.5 26.5t-25.5 63.5zM270 1153q0 58 39.5 118.5t106 109t163 79.5t201.5 31q117 0 185.5 -58.5t68.5 -150.5q0 -57 -16.5 -109.5t-41 -94.5t-67 -87.5t-81.5 -79.5t-97 -80 q-129 -101 -246 -249q-22 -28 -38 -83t-31.5 -90.5t-44.5 -35.5q-22 0 -32.5 12.5t-10.5 42.5q0 86 145 262q26 32 87 91t138 157q7 9 27 34t26.5 33.5t22.5 30.5t21.5 34t15 34t13 40.5t7 43.5t3.5 53q0 66 -38 113t-108 47q-76 0 -119.5 -25t-93.5 -90q-20 -25 -40 -78.5 t-42.5 -85.5t-60.5 -32q-23 0 -42.5 18t-19.5 45z" />
<glyph unicode="@" horiz-adv-x="1818" d="M70 586q0 207 58 380.5t151.5 288.5t215 195.5t246 116t246.5 35.5q361 0 578 -201t217 -535q0 -128 -39.5 -241t-103 -192t-142.5 -137t-158.5 -86t-150.5 -28q-42 0 -73 15t-45 37.5t-20 42.5t-6 38v68q-63 -80 -148 -133t-177 -53q-34 0 -66.5 14t-62 43t-48 81.5 t-18.5 121.5q0 108 39.5 225.5t98.5 204.5q47 67 96 112.5t99 69t95 32.5t99 9q104 0 176 -72q55 58 104 58q20 0 25.5 -7.5t5.5 -25.5q0 -4 -19 -86l-147 -594q-4 -24 -4 -39q0 -80 57 -80q41 0 83.5 14t86 42t81.5 77t68 113t47 156t17 200q0 302 -171 484t-476 182 q-159 0 -296 -64t-237.5 -182t-158 -295.5t-57.5 -394.5q0 -248 79.5 -439t234 -301t363.5 -110q124 0 234.5 34t193 92t140.5 116.5t106 126.5q12 17 24.5 37t18.5 30t13.5 19t13.5 12.5t14 3.5q35 0 35 -31q0 -9 -3.5 -19.5t-6.5 -16.5l-4 -7q-22 -43 -62.5 -96.5 t-114 -122t-161 -123t-211 -92t-256.5 -37.5q-174 0 -324.5 66t-259.5 184t-171 289.5t-62 374.5zM696 487q0 -72 32.5 -121t94.5 -49q85 0 157 81t95 169l49 185q31 116 31 163q0 52 -32 87.5t-87 35.5q-101 0 -180.5 -83.5t-119.5 -208t-40 -259.5z" />
<glyph unicode="A" horiz-adv-x="1228" d="M-117 41q0 19 11.5 27t37.5 8q49 0 115 104l688 1088q27 44 27 63q0 41 -31 41q-14 0 -24.5 8.5t-10.5 18.5q0 21 13 32t27.5 13t39.5 2h187q15 0 26 -5t17.5 -13.5t10.5 -21t5 -27.5t1.5 -32.5t0 -36t0.5 -38.5l14 -1088q0 -108 49 -108q15 0 24 -8.5t9 -20.5 q0 -21 -14.5 -32t-29.5 -13t-38 -2h-223q-63 0 -63 41q0 19 11.5 27t37.5 8q25 0 36 24.5t11 83.5l2 404h-414l-237 -400q-29 -52 -29 -67q0 -45 39 -45q37 0 37 -29q0 -47 -90 -47h-209q-64 0 -64 41zM487 674h361l-4 616z" />
<glyph unicode="B" horiz-adv-x="1210" d="M0 49q0 31 39 31q56 0 82 108l256 1076q8 36 8 59q0 47 -39 47q-29 0 -29 25q0 51 93 51h368q58 0 90 -0.5t90 -6t92.5 -15.5t78.5 -30.5t68.5 -49.5t42 -75t17.5 -104q0 -143 -120.5 -253t-302.5 -140v-10q79 -10 139.5 -38.5t95.5 -69t52.5 -87t17.5 -96.5 q0 -213 -177 -342t-505 -129h-391q-66 0 -66 49zM303 143q0 -17 8.5 -26.5t32 -13.5t38.5 -4.5t54 -0.5h25q106 0 194 19q90 20 154 81.5t91.5 131.5t27.5 139q0 67 -24.5 117.5t-67.5 79t-95 42t-112 13.5h-193l-127 -543q-6 -21 -6 -35zM457 811h176q27 0 58 3t73.5 12.5 t81 24.5t77 41.5t67 60.5t46 84.5t17.5 111.5q0 41 -11.5 73.5t-27 53t-43.5 35t-49.5 21.5t-56 11t-53 4.5t-50.5 0.5q-100 0 -138.5 -15t-58.5 -65z" />
<glyph unicode="C" horiz-adv-x="1269" d="M135 463q0 237 96.5 448.5t257.5 360.5q109 102 247 158.5t280 56.5q85 0 162.5 -24.5t128.5 -72.5t51 -108q0 -114 -51 -201q-14 -25 -26.5 -34t-35.5 -9q-15 0 -23.5 13t-13 33.5t-10.5 62.5q-1 6 -1.5 9.5t-1 9t-1.5 10.5q-5 32 -17.5 62t-38.5 64.5t-76.5 56 t-119.5 21.5q-114 0 -216.5 -54t-182.5 -150q-101 -119 -158 -283t-57 -348q0 -113 25 -199t62 -133t87.5 -76.5t91.5 -38t84 -8.5q65 0 123 15t105 42t78 51t65 56q11 10 25.5 24.5l20.5 20.5t15 13t16.5 9.5t16.5 2.5q35 0 35 -37q0 -41 -56 -99.5t-141 -111.5 q-183 -113 -426 -113q-80 0 -154.5 32.5t-134.5 93.5t-95.5 158t-35.5 216z" />
<glyph unicode="D" horiz-adv-x="1406" d="M-2 41q0 19 11.5 27t37.5 8q25 0 42 24.5t30 83.5l258 1082q8 33 8 57q0 47 -39 47q-29 0 -29 25q0 51 93 51h368h21q13 2 27 2q12 0 26 -2q30 -2 66.5 -2.5t76 -9t80 -18t80.5 -30.5t76 -46.5t66.5 -65.5t53 -87.5t35.5 -113t13 -141.5q0 -257 -106 -455t-275 -313 q-241 -164 -565 -164h-392q-63 0 -63 41zM313 190q0 -36 10 -53t54 -28t135 -11q253 0 424 152q117 104 188.5 270t71.5 393q0 221 -103.5 329t-334.5 108h-70q-58 0 -84 -18t-37 -62l-243 -1020q-11 -42 -11 -60z" />
<glyph unicode="E" horiz-adv-x="1140" d="M0 41q0 19 11.5 27t37.5 8t41 20.5t31 87.5l258 1080q8 36 8 59q0 47 -39 47q-29 0 -29 25q0 51 93 51h669q12 0 48 4t51 4q47 0 48 -61q0 -39 -17.5 -102.5t-48.5 -118t-62 -54.5q-11 0 -18 6.5t-9.5 24t-3 28.5t-0.5 38v16q0 50 -9.5 70.5t-39.5 33.5q-29 13 -186 13 h-150q-60 0 -81.5 -12t-27.5 -42l-114 -477l162 4q72 2 155 7.5t105 5.5h17.5t16 -2t16 -6t9 -13t4.5 -22q0 -34 -21.5 -57t-60.5 -23q-11 0 -100 9t-215 11l-109 2l-133 -569q-8 -28 -8 -43q0 -16 9.5 -20.5t33.5 -4.5h195q60 0 126.5 8.5t100.5 24.5q81 38 141 135 q5 8 13.5 22.5t13 21t12 15t15.5 12t18 3.5q20 0 25.5 -9.5t5.5 -29.5q0 -46 -35 -166q-25 -85 -48 -113t-69 -28q-8 0 -59.5 4t-128.5 4h-607q-61 0 -61 41z" />
<glyph unicode="F" horiz-adv-x="1060" d="M0 41q0 19 11.5 27t37.5 8q25 0 42 24.5t30 83.5l258 1080q8 36 8 59q0 47 -39 47q-29 0 -29 25q0 51 93 51h649q12 0 47.5 4t50.5 4q47 0 47 -61q0 -39 -17 -102.5t-48 -118t-62 -54.5q-6 0 -10.5 2t-7.5 6t-5.5 8.5t-3.5 12t-2 13.5t-1 16.5v17v19v18.5q0 50 -9.5 70.5 t-40.5 33.5q-29 13 -186 13h-129q-60 0 -81.5 -12t-27.5 -42l-112 -479l162 4q72 2 145 7t94 5h17.5t16 -2t16.5 -6t9.5 -13t4.5 -22q0 -34 -21.5 -56.5t-60.5 -22.5q-11 0 -90 9t-205 11l-109 2l-131 -547q-10 -42 -10 -61q0 -47 35 -47q33 0 33 -23q0 -30 -29.5 -41.5 t-65.5 -11.5h-211q-63 0 -63 41z" />
<glyph unicode="G" horiz-adv-x="1349" d="M135 463q0 201 73.5 390.5t193.5 328t282 222t332 83.5q85 0 162.5 -24.5t128.5 -72.5t51 -108q0 -122 -51 -201q-28 -43 -62 -43q-25 0 -32 18t-15 85q-2 22 -4 35q-3 24 -10.5 48t-26 53t-44.5 51t-70.5 37t-100.5 15q-176 0 -318 -116.5t-219 -307t-77 -411.5 q0 -84 14 -153.5t36.5 -117t54 -83.5t63 -57t67.5 -34t64.5 -17.5t56.5 -4.5q96 0 154 21t100 63l61 278q11 46 11 90q0 48 -64 48q-33 0 -33 22q0 21 16 33.5t32.5 16t33.5 3.5h252q64 0 64 -41q0 -19 -11.5 -26.5t-37.5 -7.5q-8 0 -14 -1.5t-11.5 -6t-9.5 -8.5t-7.5 -13 t-6 -15t-6 -19t-5 -20.5t-5 -24.5t-5.5 -26l-27 -114q-3 -11 -3 -26.5t1.5 -32t1.5 -21.5q0 -24 -11 -41.5t-36 -42.5q-85 -85 -232 -146t-317 -61q-194 0 -314 132.5t-120 371.5z" />
<glyph unicode="H" horiz-adv-x="1460" d="M25 41q0 19 11.5 27t37.5 8q25 0 41.5 24.5t29.5 83.5l256 1078q11 46 11 61q0 47 -35 47q-33 0 -33 23q0 53 94 53h211q64 0 64 -41q0 -19 -11.5 -27t-37.5 -8q-47 0 -70 -104l-107 -445h643l105 441q10 42 10 61q0 47 -35 47q-32 0 -32 23q0 53 94 53h211q63 0 63 -41 q0 -19 -11.5 -27t-37.5 -8q-45 0 -70 -104l-256 -1078q-12 -55 -12 -65q0 -47 35 -47q33 0 33 -23q0 -53 -94 -53h-211q-64 0 -64 41q0 19 11.5 27t37.5 8q46 0 72 108l129 541h-643l-129 -541q-10 -42 -10 -61q0 -47 34 -47q33 0 33 -23q0 -53 -94 -53h-211q-63 0 -63 41z " />
<glyph unicode="I" horiz-adv-x="606" d="M2 41q0 19 11.5 27t37.5 8q46 0 72 108l254 1078q10 42 10 61q0 47 -35 47q-33 0 -33 23q0 30 29.5 41.5t65.5 11.5h211q63 0 63 -41q0 -19 -11.5 -27t-37.5 -8q-45 0 -70 -104l-256 -1078q-10 -50 -10 -65q0 -47 35 -47q33 0 33 -23q0 -30 -29.5 -41.5t-65.5 -11.5h-210 q-64 0 -64 41z" />
<glyph unicode="J" horiz-adv-x="636" d="M-195 -283q0 115 68 115q18 0 51 -7t53 -7q51 0 86.5 41.5t51.5 111.5l305 1291q10 42 10 61q0 47 -35 47q-33 0 -33 23q0 30 29.5 41.5t65.5 11.5h211q63 0 63 -41q0 -19 -11.5 -27t-37.5 -8q-45 0 -70 -104l-217 -910q-76 -318 -217 -485q-193 -225 -315 -225 q-27 0 -42.5 21t-15.5 50z" />
<glyph unicode="K" horiz-adv-x="1245" d="M-2 41q0 19 11.5 27t37.5 8q46 0 72 108l256 1078q10 42 10 61q0 47 -35 47q-33 0 -33 23q0 30 29.5 41.5t65.5 11.5h211q63 0 63 -41q0 -19 -11.5 -27t-37.5 -8q-45 0 -70 -104l-114 -465q132 42 358 223q101 81 183.5 166.5t82.5 130.5q0 43 -26 43q-31 0 -31 29 q0 53 94 53h180q46 0 54 -7t8 -22q0 -10 -3.5 -19t-12 -18.5t-15 -15.5t-20 -16.5t-19.5 -16.5q-8 -7 -66.5 -65.5t-149 -138.5t-196.5 -162q-137 -104 -231 -156q12 -16 29 -46t51 -94t59 -110q6 -11 18 -32q114 -213 188 -325l22 -34q18 -27 43.5 -49.5t40 -36t14.5 -27.5 q0 -37 -38.5 -57.5t-92.5 -20.5q-29 0 -56 14t-46.5 32t-44 55.5t-39 65t-41.5 79.5q-233 465 -271 510l-45 -20l-125 -525q-10 -50 -10 -65q0 -47 35 -47q33 0 33 -23q0 -30 -29.5 -41.5t-65.5 -11.5h-211q-63 0 -63 41z" />
<glyph unicode="L" horiz-adv-x="997" d="M0 41q0 19 11.5 27t37.5 8t41 20.5t31 87.5l256 1078q10 42 10 61q0 47 -35 47q-33 0 -33 23q0 30 29.5 41.5t65.5 11.5h211q63 0 63 -41q0 -19 -11.5 -27t-37.5 -8q-45 0 -70 -104l-262 -1102q-8 -28 -8 -43q0 -16 9.5 -20.5t33.5 -4.5h154q60 0 126.5 8.5t100.5 24.5 q81 38 141 135q5 8 13.5 22.5t13 21t12 15t15.5 12t18 3.5q20 0 25.5 -9.5t5.5 -29.5q0 -46 -35 -166q-25 -85 -48 -113t-69 -28q-8 0 -59.5 4t-128.5 4h-566q-61 0 -61 41z" />
<glyph unicode="M" horiz-adv-x="1837" d="M-6 41q0 19 11.5 27t37.5 8q25 0 41 24t31 84l284 1084q11 46 11 55q0 47 -35 47q-33 0 -33 23q0 53 94 53h164q19 0 31 -4.5t18.5 -15t9 -19t5.5 -25.5l184 -1112l747 1131l2.5 5t9.5 10.5t18.5 13.5t29.5 11t43 5h164q63 0 63 -41q0 -19 -11.5 -27t-37.5 -8 q-45 0 -70 -104l-254 -1078q-12 -60 -12 -65q0 -47 35 -47q33 0 33 -23q0 -30 -29.5 -41.5t-65.5 -11.5h-210q-64 0 -64 41q0 19 11.5 27t37.5 8q47 0 72 112l248 1047l-9 2l-772 -1159q-27 -40 -38 -54.5t-26 -27t-30 -12.5q-5 0 -9 2t-7 6t-5.5 8t-4.5 10.5t-3.5 11.5 t-2.5 13t-2 12.5t-2 12t-1 10.5l-196 1167h-11l-243 -999q-5 -19 -11 -61t-6 -54q0 -47 35 -47q33 0 33 -23q0 -53 -94 -53h-148q-61 0 -61 41z" />
<glyph unicode="N" horiz-adv-x="1462" d="M25 41q0 19 11.5 27t37.5 8q47 0 71 108l258 1078q11 46 11 61q0 47 -35 47q-33 0 -33 23q0 53 94 53h164q23 0 38.5 -12t19.5 -24l4 -11l456 -1084l195 893q16 78 16 115q0 47 -35 47q-32 0 -32 23q0 53 94 53h147q25 0 43.5 -10t18.5 -31q0 -19 -11.5 -27t-37.5 -8 q-45 0 -72 -108l-293 -1203q-1 -4 -3.5 -14.5t-4 -15t-4 -13.5t-5 -13t-6.5 -10t-8.5 -9t-10.5 -5t-13 -2h-3q-13 1 -25 9q-13 10 -18 17.5t-16 30t-14 27.5l-520 1221l-228 -1044q-16 -78 -16 -115q0 -47 35 -47q33 0 33 -23q0 -30 -29.5 -41.5t-65.5 -11.5h-147 q-61 0 -61 41z" />
<glyph unicode="O" horiz-adv-x="1431" d="M135 475q0 183 58.5 362.5t172.5 328.5t265 231q87 47 167.5 68.5t180.5 21.5q203 0 319.5 -132t116.5 -380q0 -184 -58.5 -363t-172 -328t-264.5 -231q-89 -47 -167 -68.5t-182 -21.5q-202 0 -319 134t-117 378zM332 545q0 -107 17.5 -191t47 -137t71.5 -87t87.5 -48 t99.5 -14q84 0 150 26t135 86q133 116 206 319t73 406q0 107 -18 191t-48 137t-72 87t-87 48t-97 14q-158 0 -287 -112q-133 -116 -205.5 -319t-72.5 -406z" />
<glyph unicode="P" horiz-adv-x="1234" d="M-2 41q0 19 11.5 27t37.5 8q46 0 72 108l256 1078q10 38 10 61q0 47 -35 47q-33 0 -33 23q0 30 29.5 41.5t65.5 11.5h440q44 0 78.5 -2t82 -9.5t83.5 -20.5t74.5 -37.5t63 -58t40.5 -85t16 -115.5q0 -56 -22 -121t-70 -133t-116 -123t-169.5 -90t-220.5 -35 q-76 0 -143 12.5t-96 25.5l-29 12l-115 -478q-10 -50 -10 -65q0 -47 35 -47q33 0 33 -23q0 -30 -29.5 -41.5t-65.5 -11.5h-211q-63 0 -63 41zM461 797q-1 -4 -1 -8q0 -29 54 -54q60 -28 158 -28q198 0 303.5 112t105.5 303q0 58 -18 101t-44 66.5t-66.5 37t-75 17.5t-78.5 4 h-154q-18 0 -26.5 -1.5t-20 -9t-19 -26t-14.5 -49.5z" />
<glyph unicode="Q" horiz-adv-x="1439" d="M135 475q0 183 58.5 362.5t172.5 328.5t265 231q87 47 167.5 68.5t180.5 21.5q203 0 319.5 -132t116.5 -380q0 -274 -129 -528.5t-346 -380.5q11 -15 35 -52t46.5 -68t43.5 -55q27 -30 54 -51t42 -28t24 -15.5t9 -21.5q0 -24 -29.5 -36.5t-58.5 -12.5q-28 0 -54 7.5 t-45 15t-42.5 29.5t-35 32.5t-34.5 44t-29.5 43.5t-32 52t-30.5 50q-101 -37 -232 -37q-202 0 -319 134t-117 378zM332 545q0 -107 17.5 -191t47 -137t71.5 -87t87.5 -48t99.5 -14q59 0 95 10q-22 32 -44.5 60t-30 38.5t-7.5 18.5q0 32 47 32q37 0 82 -22.5t86 -69.5 q4 3 57 45q133 116 206 319t73 406q0 107 -18 191t-48 137t-72 87t-87 48t-97 14q-158 0 -287 -112q-133 -116 -205.5 -319t-72.5 -406z" />
<glyph unicode="R" horiz-adv-x="1257" d="M-2 41q0 19 11.5 27t37.5 8q46 0 72 108l256 1078q4 17 6 27.5t3 15.5t1 7.5t-0.5 3t-1 2.5t-0.5 5q0 47 -35 47q-33 0 -33 23q0 30 29.5 41.5t65.5 11.5h440q49 0 87 -2t85.5 -10t83 -21t71.5 -38t59 -58.5t37.5 -84.5t14.5 -114q0 -80 -35 -157t-101 -142.5 t-169.5 -112.5t-230.5 -63q168 -336 266 -473q18 -25 44 -48t40 -37t14 -28q0 -37 -38.5 -57t-92.5 -20q-36 0 -66.5 17t-59.5 56.5t-48.5 73t-52.5 98.5q-22 43 -53.5 108.5t-53.5 111.5t-46.5 93t-46 75.5t-38.5 37.5l-98 11l-113 -474q-10 -50 -10 -65q0 -47 35 -47 q33 0 33 -23q0 -30 -29.5 -41.5t-65.5 -11.5h-211q-63 0 -63 41zM452 763.5q0 -7.5 11 -14t31.5 -11t62 -7t102.5 -2.5q86 0 161 24t133.5 70.5t92 122t33.5 172.5q0 57 -17 99.5t-43 67t-65 39t-75.5 19.5t-81.5 5h-154q-18 0 -26 -1.5t-19.5 -9t-19.5 -26t-15 -49.5 l-110 -482q-1 -9 -1 -16.5z" />
<glyph unicode="S" horiz-adv-x="1148" d="M84 205q0 86 23.5 158.5t68.5 72.5q25 0 39 -30.5t20.5 -73t31.5 -100t69 -99.5q35 -33 96.5 -53.5t122.5 -20.5q150 0 236 73t86 208q0 24 -4.5 46t-16 44t-21 38.5t-29.5 37.5t-31 33t-37 32.5t-35.5 27.5t-38 27.5t-33.5 24.5q-17 13 -57.5 41t-61 43.5t-55.5 44 t-54.5 49.5t-44.5 53.5t-38 63t-22 70t-9 82.5q0 125 72 214.5t191 132t271 42.5q75 0 155.5 -24.5t140 -73t59.5 -107.5q0 -75 -35.5 -154t-81.5 -79q-8 0 -14 2.5t-10 9.5t-7 14t-5 21t-3 25t-3.5 31.5t-4.5 35.5q-6 42 -21.5 76t-45.5 65t-82 48.5t-122 17.5 q-130 0 -197 -68.5t-67 -191.5q0 -43 16.5 -84t39 -71t60.5 -63t65 -52t69.5 -47t58.5 -40q115 -82 158 -123q131 -122 131 -262q0 -80 -36.5 -155.5t-105.5 -137.5t-182.5 -99.5t-254.5 -37.5q-97 0 -192 31.5t-158.5 88t-63.5 122.5z" />
<glyph unicode="T" horiz-adv-x="1179" d="M211 1176q0 71 18 172q8 47 29.5 76.5t54.5 29.5q24 0 79.5 -4t105.5 -4h702q18 0 71.5 4t67.5 4q47 0 47 -61q0 -39 -16.5 -102.5t-47.5 -118t-62 -54.5q-11 0 -18 6.5t-9.5 24t-3 28.5t-0.5 38v16q0 50 -9.5 70.5t-39.5 33.5q-29 13 -187 13h-88l-278 -1160 q-11 -46 -11 -65q0 -47 35 -47q33 0 33 -23q0 -53 -94 -53h-211q-64 0 -64 41q0 35 50 35q45 0 71 108l275 1164h-154q-89 0 -128 -17t-81 -71q-10 -13 -28.5 -51t-36.5 -64.5t-35 -26.5q-37 0 -37 58z" />
<glyph unicode="U" horiz-adv-x="1384" d="M162 311q0 55 31 197l180 754q10 42 10 61q0 47 -35 47q-33 0 -33 23q0 30 29.5 41.5t65.5 11.5h211q63 0 63 -41q0 -19 -11.5 -27t-37.5 -8q-47 0 -70 -104l-159 -666q-3 -15 -17.5 -73t-19 -79t-10 -59t-5.5 -67q0 -244 269 -244q83 0 151 24.5t111 60.5t76 85t49 89.5 t26 82.5l205 842q10 42 10 61q0 47 -34 47q-33 0 -33 23q0 53 94 53h133q64 0 64 -41q0 -35 -50 -35q-25 0 -41 -24.5t-28 -79.5l-205 -842q-25 -102 -72 -181.5t-104 -128t-127.5 -79.5t-136.5 -43t-138 -12q-90 0 -163 18t-129.5 56t-87.5 103.5t-31 153.5z" />
<glyph unicode="V" horiz-adv-x="1224" d="M158 1393q0 53 94 53h211q63 0 63 -41q0 -19 -11.5 -27t-37.5 -8q-35 0 -35 -53q0 -17 4 -53l117 -1016l529 1012q18 38 18 63q0 47 -35 47q-33 0 -33 23q0 30 29.5 41.5t65.5 11.5h182q63 0 63 -41q0 -19 -11.5 -27t-37.5 -8q-24 0 -54.5 -32t-82.5 -126l-627 -1132 q-45 -83 -64 -104q-26 -26 -52 -27q-14 0 -23.5 8.5t-15 27.5t-8 33.5t-5.5 40.5l-143 1207q-6 49 -25 76.5t-43 27.5q-32 0 -32 23z" />
<glyph unicode="W" horiz-adv-x="1859" d="M246 1399q0 23 21.5 35t56.5 12h211q63 0 63 -41q0 -19 -11.5 -27t-37.5 -8q-35 0 -35 -53v-72l21 -934l538 1059q30 59 49.5 76.5t46.5 17.5q38 0 48 -86l118 -1067l400 949q18 45 18 63q0 47 -35 47q-32 0 -32 23q0 53 94 53h182q63 0 63 -41q0 -19 -11.5 -27t-37.5 -8 q-65 0 -137 -158l-491 -1089q-5 -11 -19 -44t-22 -49t-21 -38t-26 -31.5t-27 -9.5q-37 0 -44 90q-1 5 -1 8l-123 1102l-516 -1028q-22 -44 -34.5 -66t-31 -51.5t-34.5 -42t-31 -12.5q-26 0 -36.5 26t-12.5 80l-39 1209q-1 61 -13.5 82.5t-37.5 21.5q-33 0 -33 29z" />
<glyph unicode="X" horiz-adv-x="1269" d="M-2 41q0 19 11.5 27t37.5 8q18 0 57.5 31.5t75.5 74.5l447 527l-193 557q-34 104 -78 104q-32 0 -32 23q0 31 24.5 42t69.5 11h227q64 0 64 -41q0 -35 -50 -35q-17 0 -22.5 -11t-5.5 -40q0 -30 14 -72l123 -407l240 315q43 57 74.5 109.5t31.5 64.5q0 16 -9.5 28.5 t-23.5 12.5q-32 0 -32 23q0 53 94 53h194q64 0 64 -41q0 -19 -11.5 -27t-37.5 -8q-19 0 -44 -23t-71 -79l-434 -527l188 -555q36 -110 78 -110q33 0 33 -23q0 -53 -94 -53h-222q-63 0 -63 41q0 19 11.5 27t37.5 8q29 0 29 51q0 32 -29 135l-104 346l-267 -329 q-58 -72 -81 -110.5t-23 -64.5q0 -9 6 -18.5t14 -9.5q33 0 33 -23q0 -53 -94 -53h-195q-63 0 -63 41z" />
<glyph unicode="Y" horiz-adv-x="1087" d="M207 1393q0 53 80 53h225q63 0 63 -41q0 -19 -11.5 -27t-37.5 -8q-34 0 -34 -53q0 -31 10 -76l112 -567l351 512q84 122 84 153t-23 31q-33 0 -33 23q0 53 80 53h160q63 0 63 -41q0 -35 -41 -35q-24 0 -45 -22.5t-67 -87.5l-494 -685l-90 -387q-10 -42 -10 -65 q0 -47 35 -47q32 0 32 -23q0 -53 -94 -53h-211q-63 0 -63 41q0 19 11.5 27t37.5 8q29 0 44 24.5t28 83.5l90 385l-158 697q-13 56 -26 80t-35 24q-33 0 -33 23z" />
<glyph unicode="Z" horiz-adv-x="1153" d="M-10 33q0 8 0.5 13.5t1.5 10.5t4.5 11.5t6.5 12t11.5 16.5t15.5 20t22 28.5t28 36.5l874 1166h-325q-90 0 -134 -17.5t-85 -70.5q-10 -13 -29 -51t-37 -64.5t-35 -26.5q-37 0 -37 58q0 65 19 172q8 47 29.5 76.5t54.5 29.5q24 0 79 -4t105 -4h604q16 0 24.5 -2t12 -9 t4 -11.5t0.5 -16.5q0 -23 -80 -129l-886 -1182h213q71 0 152.5 8.5t113.5 24.5q45 23 77.5 54t63.5 81q5 8 13.5 22.5t13 21t12 15t15.5 12t18 3.5q20 0 25.5 -9.5t5.5 -29.5q0 -46 -35 -166q-25 -85 -48 -113t-69 -28q-8 0 -59.5 4t-128.5 4h-549q-30 0 -43.5 1t-26 8.5 t-12.5 23.5z" />
<glyph unicode="[" horiz-adv-x="794" d="M100 -389l449 1876h383l-19 -76l-196 -2l-418 -1728h199l-21 -70h-377z" />
<glyph unicode="\" horiz-adv-x="808" d="M360 1477q-6 37 8.5 56t37.5 19q28 0 39 -9.5t14 -29.5l256 -1892q6 -37 -8 -56.5t-37 -19.5q-28 0 -39.5 9.5t-14.5 29.5z" />
<glyph unicode="]" horiz-adv-x="786" d="M-4 -389l20 70h195l418 1730h-197l17 76h385l-455 -1876h-383z" />
<glyph unicode="^" horiz-adv-x="966" d="M285 936l358 553l358 -553l-65 -21l-295 322l-291 -322z" />
<glyph unicode="_" horiz-adv-x="1034" d="M0 -272h1038v-88h-1038v88z" />
<glyph unicode="`" horiz-adv-x="559" d="M106 1421q3 34 25 62q46 20 76 20q46 0 74 -82l112 -334h-41l-215 252q-28 24 -31 82z" />
<glyph unicode="a" horiz-adv-x="1073" d="M82 250q0 132 45.5 270t114.5 234q193 270 450 270q80 0 124 -18t87 -58q38 33 61.5 46.5t51.5 13.5q33 0 33 -31q0 -2 -23 -96l-174 -707q-4 -14 -4 -43q0 -15 2.5 -25t14 -19t32.5 -9q23 0 23 -21q0 -35 -63 -64.5t-107 -29.5q-70 0 -70 84q0 38 27 152l-7 2 q-69 -107 -171.5 -172.5t-209.5 -65.5q-101 0 -169 72t-68 215zM258 315q0 -110 39.5 -171.5t120.5 -61.5q60 0 130 54t120 125t65 128l58 219q34 129 34 195q0 68 -37.5 106.5t-109.5 38.5q-81 0 -151 -40.5t-118.5 -106.5t-83 -149.5t-51 -169.5t-16.5 -167z" />
<glyph unicode="b" horiz-adv-x="1021" d="M45 20q0 17 6.5 45t16.5 65t14 56l260 1106q8 40 8 66q0 16 -9 25.5t-22 9.5q-26 0 -26 24q0 25 27 38t63 13h106q28 0 38 -10.5t10 -34.5q0 -10 -19 -88l-108 -473q62 76 149.5 119t181.5 43q112 0 187.5 -78t75.5 -246q0 -139 -54 -290t-145 -258q-150 -177 -369 -177 q-72 0 -129 30.5t-86 78.5q-22 -39 -62.5 -67.5t-76.5 -28.5q-37 0 -37 32zM281 231q0 -74 49.5 -124t122.5 -50q89 0 162 54t118 141t69.5 192t24.5 213q0 250 -172 250q-38 0 -79.5 -14t-85 -43t-79.5 -82.5t-53 -124.5l-55 -227q-22 -99 -22 -185z" />
<glyph unicode="c" horiz-adv-x="913" d="M74 295q0 139 49 271.5t127 228.5q90 109 200 169t218 60q70 0 139.5 -21t103.5 -45q21 -14 28 -30.5t7 -44.5q0 -24 -10 -60.5t-31.5 -69t-46.5 -32.5q-14 0 -23.5 12t-13 25.5t-8 33.5t-6.5 27q-6 19 -12.5 33t-21 32t-34 29.5t-52 20t-73.5 8.5q-102 0 -187 -91.5 t-130 -229.5t-45 -283q0 -116 53 -194t154 -78q149 0 264 139q22 28 45 28q14 0 26.5 -8.5t12.5 -27.5t-23 -45q-71 -85 -177.5 -137t-205.5 -52q-31 0 -60 4t-69.5 14.5t-73 34t-62 58.5t-46 92t-16.5 129z" />
<glyph unicode="d" horiz-adv-x="1075" d="M82 250q0 132 45.5 270t114.5 234q193 270 450 270q65 0 110 -22t60 -44l82 334q8 40 8 66q0 17 -8.5 26t-21.5 9q-27 0 -27 24q0 25 27 38t63 13h107q28 0 37.5 -10t9.5 -35q0 -7 -19 -88l-272 -1161q-4 -16 -4 -43q0 -53 53 -53q23 0 23 -21q0 -35 -63 -64.5 t-107 -29.5q-70 0 -70 84q0 38 27 152l-7 2q-69 -107 -171.5 -172.5t-209.5 -65.5q-101 0 -169 72t-68 215zM258 315q0 -110 39.5 -171.5t120.5 -61.5q60 0 130 53.5t120 124.5t65 129l58 219q34 129 34 195q0 67 -38.5 105.5t-108.5 39.5h-4q-79 0 -147 -40 q-70 -40 -118.5 -106t-83 -149.5t-51 -170t-16.5 -167.5z" />
<glyph unicode="e" horiz-adv-x="940" d="M74 295q0 139 49 271.5t127 228.5q88 107 209.5 168t228.5 61q256 0 256 -168q0 -117 -116 -216t-334 -128q-39 -5 -94.5 -10t-91.5 -8l-36 -2q-5 -12 -12.5 -64.5t-7.5 -89.5q0 -116 53 -194t154 -78q149 0 264 139q22 28 45 28q14 0 26.5 -8.5t12.5 -27.5t-23 -45 q-158 -189 -403 -189q-33 0 -66.5 5.5t-79 26.5t-79.5 54.5t-58 97.5t-24 148zM293 565q106 7 172 15q71 9 126.5 29t89 44t54.5 53t29 54t8 51q0 68 -37.5 99.5t-99.5 31.5q-55 0 -106.5 -27.5t-88.5 -69.5t-68.5 -94.5t-50 -98.5t-28.5 -87z" />
<glyph unicode="f" horiz-adv-x="688" d="M27 51q0 25 34 25q31 0 48 24t28 74l166 696h-90q-34 0 -42.5 3t-8.5 18q0 29 32 54.5t70 25.5h64l37 147q23 91 75 162.5t109 110.5q47 33 124 57.5t169 24.5q73 0 73 -43q0 -62 -24.5 -91.5t-48.5 -29.5q-19 0 -36 10.5t-27.5 23t-30.5 23t-46 10.5q-68 0 -104 -57 t-70 -201l-34 -147h249q21 0 30 -3.5t9 -17.5q0 -27 -36.5 -54.5t-79.5 -27.5h-197l-162 -684q-10 -45 -10 -61q0 -29 10.5 -38t28.5 -9q22 0 22 -23q0 -53 -92 -53h-180q-59 0 -59 51z" />
<glyph unicode="g" horiz-adv-x="1077" d="M-74 -311q0 56 24.5 95.5t65.5 39.5q9 0 16.5 -3t14.5 -10.5t12 -14t11 -20.5t10 -23.5t11.5 -29t12.5 -30.5q20 -50 63 -80.5t95 -30.5q54 0 96 11t74.5 35t54.5 49t52 67q22 31 41 71t36 92.5t27.5 88t27.5 100.5t23 86l-4 4q-168 -223 -368 -223q-101 0 -170.5 72 t-69.5 215q0 132 45.5 270t114.5 234q193 270 452 270q123 0 207 -90q64 72 123 72q16 0 21.5 -6t5.5 -21q0 -9 -3.5 -21.5t-10 -34.5t-11.5 -42l-174 -707q-83 -343 -205 -481q-91 -104 -201.5 -148.5t-203.5 -44.5q-152 0 -234 48.5t-82 140.5zM258 315 q0 -110 39.5 -171.5t120.5 -61.5q60 0 129 50.5t119 121.5t67 135l58 219q34 129 34 195q0 68 -37.5 106.5t-109.5 38.5q-81 0 -151 -40.5t-118.5 -106.5t-83 -149.5t-51 -169.5t-16.5 -167z" />
<glyph unicode="h" horiz-adv-x="1073" d="M16 51q0 25 35 25q30 0 47.5 24t28.5 72l266 1120q8 40 8 66q0 17 -8.5 26t-21.5 9q-27 0 -27 24q0 25 27 38t63 13h107q28 0 37.5 -10t9.5 -35q0 -10 -19 -88l-133 -567h8q97 109 209.5 176.5t198.5 67.5q154 0 154 -162q0 -60 -21 -162l-111 -475q-14 -58 -14 -82v-7 q0 -18 1 -26t10 -15t28 -7q31 0 31 -23t-22 -38t-60 -15h-127q-43 0 -43 51q0 21 22 123l103 426q31 127 31 184q0 97 -86 97q-105 0 -224.5 -118t-150.5 -251l-76 -328q-10 -45 -10 -61q0 -29 10.5 -38t28.5 -9q22 0 22 -23q0 -53 -92 -53h-180q-60 0 -60 51z" />
<glyph unicode="i" horiz-adv-x="538" d="M27 51q0 25 34 25q30 0 47.5 25t28.5 75l154 643q8 39 8 66q0 16 -9 25.5t-22 9.5q-26 0 -26 24q0 25 27 38t63 13h106q28 0 37.5 -10t9.5 -35q0 -12 -18 -88l-162 -678q-10 -45 -10 -61q0 -29 10.5 -38t28.5 -9q22 0 22 -23q0 -53 -92 -53h-178q-59 0 -59 51zM371 1264 q0 60 37 99.5t86 39.5q38 0 62 -27t24 -69q0 -52 -37 -92.5t-84 -40.5q-37 0 -62.5 26.5t-25.5 63.5z" />
<glyph unicode="j" horiz-adv-x="520" d="M-260 -469q0 57 26.5 97t57.5 40q3 0 48 -5t52 1q17 5 28.5 10.5t33 22.5t38.5 50.5t27 82.5q11 53 24 121.5t19 93.5l182 774q6 23 8.5 36.5t2.5 17t-1 6.5t-1 6q0 16 -9 25.5t-22 9.5q-27 0 -27 24q0 25 27 38t63 13h107q28 0 37.5 -10t9.5 -35q0 -12 -18 -88 l-164 -690q-85 -353 -266 -543q-71 -74 -126 -113.5t-106 -39.5t-51 55zM340 1264q0 60 37 99.5t86 39.5q38 0 62 -27t24 -69q0 -52 -37 -92.5t-84 -40.5q-37 0 -62.5 26.5t-25.5 63.5z" />
<glyph unicode="k" horiz-adv-x="933" d="M8 51q0 25 35 25q30 0 47 24.5t29 73.5l262 1118q8 40 8 66q0 16 -9 25.5t-22 9.5q-26 0 -26 24q0 25 27 38t63 13h108q28 0 38 -10.5t10 -34.5q0 -5 -2.5 -15t-8 -31.5t-10.5 -41.5l-176 -751q125 45 240 127q161 115 161 172q0 32 -22 32q-41 0 -41 29q0 51 92 51h137 q58 0 58 -47q0 -8 -5 -17.5t-17.5 -22t-22.5 -21.5t-32.5 -28t-35.5 -30q-102 -86 -180 -137q-32 -21 -72.5 -48.5t-60 -40t-33.5 -19.5l151 -301q39 -77 74.5 -129.5t54.5 -69.5t30 -28.5t11 -22.5q0 -56 -123 -56q-63 0 -107 67.5t-156 311.5q-3 7 -5 11l-76 163l-36 -16 l-78 -330q-11 -50 -11 -61q0 -29 10.5 -38t28.5 -9q23 0 23 -23q0 -53 -92 -53h-178q-60 0 -60 51z" />
<glyph unicode="l" horiz-adv-x="548" d="M29 51q0 25 34 25q30 0 47 24.5t29 73.5l264 1118q9 45 9 66q0 16 -9 25.5t-22 9.5q-27 0 -27 24q0 25 27 38t63 13h107q28 0 37.5 -10t9.5 -35q0 -11 -18 -88l-271 -1151q-10 -45 -10 -61q0 -29 10.5 -38t28.5 -9q22 0 22 -23q0 -53 -92 -53h-180q-59 0 -59 51z" />
<glyph unicode="m" horiz-adv-x="1581" d="M18 51q0 25 35 25q30 0 47 24.5t29 73.5l150 641q6 25 8.5 39t2.5 17.5t-0.5 7t-0.5 6.5q0 16 -9 25.5t-22 9.5q-27 0 -27 24t27.5 37.5t63.5 13.5h106q29 0 40 -11.5t11 -39.5q0 -31 -51 -182h8q97 135 197 193.5t184 58.5q87 0 120.5 -45.5t33.5 -126.5q0 -45 -15 -111 h7q97 140 202 211.5t189 71.5q168 0 168 -158q0 -66 -23 -166l-110 -477q-15 -62 -15 -82v-7q0 -18 1 -26t10 -15t28 -7q31 0 31 -23t-22 -38t-60 -15h-127q-43 0 -43 51q0 21 22 123l103 428q33 151 33 189q0 26 -4.5 43.5t-23 32t-52.5 14.5q-60 0 -124.5 -46.5 t-111.5 -111.5t-80 -126t-41 -97l-71 -316q-11 -49 -11 -61q0 -29 10.5 -38t28.5 -9q23 0 23 -23q0 -53 -92 -53h-180q-60 0 -60 51q0 25 35 25q30 0 47 24.5t29 73.5l92 389q35 147 39 232v7q0 91 -82 91q-58 0 -133 -61t-131 -143t-72 -146l-86 -359q-10 -45 -10 -61 q0 -29 10.5 -38t28.5 -9q22 0 22 -23q0 -53 -92 -53h-180q-60 0 -60 51z" />
<glyph unicode="n" horiz-adv-x="1099" d="M14 51q0 25 35 25q30 0 47.5 24t28.5 72l151 641q11 53 11 72q0 16 -9 25.5t-22 9.5q-27 0 -27 24q0 25 27 38t63 13h107q29 0 40 -11.5t11 -39.5q0 -11 -7.5 -41t-18 -71t-15.5 -64h8q97 109 209.5 176.5t198.5 67.5q154 0 154 -162q0 -60 -21 -162l-111 -475 q-14 -68 -14 -82v-7q0 -18 1 -26t10 -15t28 -7q31 0 31 -23t-22 -38t-60 -15h-127q-43 0 -43 51q0 21 22 123l103 426q31 131 31 184q0 97 -86 97q-105 0 -224.5 -118t-150.5 -251l-78 -328q-10 -45 -10 -61q0 -29 10.5 -38t28.5 -9q22 0 22 -23q0 -53 -92 -53h-180 q-60 0 -60 51z" />
<glyph unicode="o" horiz-adv-x="1026" d="M78 309q0 161 61.5 305t161.5 246q161 164 385 164q41 0 80 -7t85 -29.5t79.5 -59t56.5 -101t23 -149.5q0 -161 -61.5 -305t-162.5 -246q-161 -164 -385 -164q-41 0 -80 7t-85 29.5t-79.5 59t-56 101t-22.5 149.5zM256 328q0 -30 3.5 -62t16.5 -73.5t34 -72.5t59 -53 t88 -22q83 0 154.5 55.5t118.5 144t74 197t27 217.5q0 37 -3.5 69.5t-15.5 73.5t-32.5 70t-59 49.5t-89.5 20.5q-83 0 -155 -55.5t-119 -144t-74 -197.5t-27 -217z" />
<glyph unicode="p" horiz-adv-x="1046" d="M-129 -477q0 24 35 24q31 0 47 23t29 78l278 1163q8 37 8 74q0 17 -8.5 26t-21.5 9q-27 0 -27 24q0 25 27 38t63 13h107q29 0 40 -11.5t11 -39.5q0 -21 -8 -67q67 76 153 111.5t168 35.5q117 0 189.5 -77t72.5 -247q0 -142 -51.5 -290.5t-146.5 -257.5 q-74 -88 -162.5 -132.5t-206.5 -44.5q-65 0 -126 31.5t-89 77.5l-102 -432q-9 -35 -9 -58q0 -29 10.5 -38t28.5 -9q23 0 23 -22q0 -53 -92 -53h-181q-59 0 -59 51zM311 231q0 -73 44 -123.5t128 -50.5q89 0 162 54t118.5 141t70 192t24.5 213q0 125 -45.5 191.5t-136.5 66.5 q-87 0 -172 -78t-117 -208l-53 -213q-23 -94 -23 -185z" />
<glyph unicode="q" horiz-adv-x="1089" d="M84 250q0 129 46 267t118 237q198 270 446 270q65 0 121 -29t86 -61q64 72 123 72q16 0 21.5 -6t5.5 -21q0 -9 -3.5 -21.5t-10 -34.5t-11.5 -42l-291 -1225q-10 -45 -10 -62q0 -29 10.5 -38t28.5 -9q22 0 22 -22q0 -53 -92 -53h-180q-59 0 -59 51q0 24 34 24 q31 0 48.5 24.5t29.5 80.5l127 530l-4 4q-161 -223 -368 -223q-48 0 -89.5 15.5t-75.5 48t-53.5 90t-19.5 133.5zM260 287q0 -92 38.5 -148.5t119.5 -56.5q60 0 129 50.5t119 121.5t67 135l58 219q34 129 34 195t-38.5 103.5t-108.5 37.5q-86 0 -165 -60t-133.5 -154.5 t-87 -212t-32.5 -230.5z" />
<glyph unicode="r" horiz-adv-x="808" d="M25 51q0 25 34 25q30 0 47.5 24.5t28.5 73.5l154 635q10 45 10 76q0 16 -9 25.5t-22 9.5q-26 0 -26 24q0 25 27 38t63 13h106q51 0 51 -51q0 -35 -38 -123l10 -6q198 195 356 195q86 0 86 -66q0 -50 -27.5 -101.5t-70.5 -51.5q-18 0 -35.5 16.5t-39 33.5t-50.5 17 q-90 0 -175.5 -87t-111.5 -204l-88 -383q-10 -45 -10 -61q0 -29 10.5 -38t28.5 -9q22 0 22 -23q0 -53 -92 -53h-180q-59 0 -59 51z" />
<glyph unicode="s" horiz-adv-x="876" d="M49 123q0 25 3 47.5t9.5 46t21 37.5t34.5 14t33.5 -19.5t32 -59t36.5 -64.5q26 -34 81 -59t114 -25q35 0 70 10.5t67.5 32t53 61t20.5 91.5q0 34 -12 62t-37 50t-46 36.5t-57 34.5t-51 30q-105 67 -136 95q-85 83 -87 197q0 135 95.5 209t246.5 74q178 0 270 -57 q37 -21 37 -80q0 -51 -21.5 -102.5t-58.5 -51.5q-20 0 -31 24t-24 65t-31 65q-49 65 -150 65q-32 0 -61 -7.5t-57 -24.5t-45 -50t-17 -79q0 -28 10.5 -54.5t24 -44.5t38.5 -38t40.5 -30t45.5 -27t38 -22t40.5 -24t48 -29t44.5 -31t44.5 -40.5t33 -46t25.5 -58t8 -67.5 q0 -63 -23 -116t-62 -89.5t-91 -61.5t-109 -37t-117 -12q-65 0 -124 9t-109 27.5t-79.5 50.5t-29.5 73z" />
<glyph unicode="t" horiz-adv-x="661" d="M150 899q0 17 4.5 27.5t16 16.5t19.5 8t27 5q66 10 119 56q50 44 96 145q8 18 22 55.5t22 55t27 33.5t44 16q32 0 38 -10q3 -5 3 -13q0 -19 -8 -51l-66 -272h215q29 0 29 -21q0 -33 -23.5 -56.5t-68.5 -23.5h-177l-137 -573q-22 -86 -22 -137q0 -54 22 -71t74 -17 q25 0 25 -27q0 -29 -49 -44t-105 -15q-15 0 -29.5 2t-36 10t-37 21.5t-27 40.5t-11.5 63q0 32 18 119l150 628h-144q-30 0 -30 29z" />
<glyph unicode="u" horiz-adv-x="1075" d="M123 150q0 49 24 151l121 508q6 24 6 51q0 34 -9.5 47t-28.5 13q-21 0 -21 24q0 28 29.5 39.5t62.5 11.5h135q27 0 27 -30q0 -8 -14 -66l-121 -508q-39 -153 -39 -186q0 -59 19.5 -87t80.5 -28q50 0 112.5 40.5t114 96t89 113t45.5 92.5l88 377q6 24 6 51q0 34 -10 47 t-29 13q-20 0 -20 24q0 28 29.5 39.5t62.5 11.5h135q26 0 26 -30q0 -6 -2.5 -17.5t-6.5 -26.5t-5 -22l-170 -721q-5 -25 -5 -44q0 -16 4 -30q9 -28 32 -28q22 0 22 -19q0 -29 -29.5 -43t-60.5 -14h-123q-18 0 -25.5 14.5t-4.5 40.5t8 50t13.5 55.5t10.5 44.5l-10 6 q-42 -48 -77.5 -82.5t-85.5 -72.5t-106.5 -58.5t-115.5 -20.5q-86 0 -135 44t-49 129z" />
<glyph unicode="v" horiz-adv-x="958" d="M129 944q0 28 29.5 39.5t62.5 11.5h174q64 0 64 -41q0 -15 -11 -24.5t-28 -9.5q-22 0 -34.5 -23.5t-12.5 -52.5q0 -24 6 -80l72 -565l368 610q8 13 16.5 37t8.5 37q0 37 -41 37q-21 0 -21 24q0 51 92 51h127q64 0 64 -41q0 -15 -11 -24.5t-28 -9.5q-20 0 -37.5 -19.5 t-49.5 -69.5q-4 -8 -7 -12l-467 -727q-38 -61 -63.5 -89t-49.5 -28q-8 0 -14 2.5t-11 8t-9 11t-6.5 15t-4.5 16.5t-3.5 19t-2.5 19t-2 19.5t-2 18.5l-86 662q-1 6 -2 19t-2 22t-3 22.5t-4 23t-5.5 21t-7.5 19t-9.5 14t-12.5 10t-15 3.5q-21 0 -21 24z" />
<glyph unicode="w" horiz-adv-x="1468" d="M143 944q0 28 30 39.5t63 11.5h174q63 0 63 -41q0 -15 -11 -24.5t-28 -9.5q-22 0 -34.5 -21t-12.5 -49q0 -20 4 -102l29 -515l371 652q25 44 36 61t28 32t36 15q8 0 14 -2.5t10 -9t6.5 -12.5t5 -17.5t3.5 -19l3 -22.5t3 -23l86 -654l299 576q22 36 22 74q0 37 -40 37 q-21 0 -21 24q0 51 92 51h127q64 0 64 -41q0 -15 -11 -24.5t-28 -9.5q-23 0 -41.5 -21t-50.5 -80l-398 -735q-59 -109 -112 -109q-12 0 -21 9.5t-14.5 29.5t-8.5 39t-7 48l-3 24l-77 596l-365 -635q-34 -59 -60.5 -85t-52.5 -26q-28 0 -37.5 33t-13.5 96l-37 664 q-5 86 -16.5 119t-46.5 33q-21 0 -21 24z" />
<glyph unicode="x" horiz-adv-x="1003" d="M-18 51q0 25 34 25q55 0 148 98l299 320l-137 327q-2 4 -5 12q-10 23 -15.5 34.5t-17 25.5t-27 19.5t-38.5 5.5q-30 0 -30 26q0 28 27.5 39.5t60.5 11.5h231q63 0 63 -41q0 -15 -10.5 -24.5t-27.5 -9.5q-22 0 -29.5 -8t-7.5 -29q0 -37 37 -133l51 -138l162 197 q14 16 26 38.5t12 35.5q0 37 -40 37q-21 0 -21 24q0 51 92 51h154q63 0 63 -41q0 -15 -11 -24.5t-28 -9.5q-19 0 -42.5 -20t-65.5 -66l-4.5 -4.5t-3.5 -4t-4 -4.5l-261 -282l152 -367q40 -96 78 -96q10 0 18 -6.5t8 -14.5q0 -55 -75 -55h-201q-59 0 -59 51q0 25 34 25 q33 0 33 37q0 22 -18 67l-92 238l-209 -238q-27 -30 -27 -57q0 -29 10.5 -38t28.5 -9q22 0 22 -23q0 -53 -92 -53h-186q-59 0 -59 51z" />
<glyph unicode="y" horiz-adv-x="1073" d="M-74 -311q0 56 24.5 95.5t65.5 39.5q9 0 16.5 -3t14.5 -10.5t12 -14t11 -20.5t10 -23.5t11.5 -29t12.5 -30.5q20 -50 63 -80.5t95 -30.5q54 0 96 11t74.5 35t54.5 49t52 67q27 38 52.5 102.5t39 110t36.5 135t29 111.5l-4 4q-30 -33 -50 -53.5t-64 -58t-81 -60t-89 -40.5 t-101 -18q-184 0 -184 166q0 56 24 158l123 508q6 24 6 51q0 34 -9.5 47t-28.5 13q-21 0 -21 24q0 28 29.5 39.5t62.5 11.5h142q20 0 20 -30q0 -12 -12 -66l-125 -508q-37 -145 -37 -196q0 -52 21.5 -78.5t82.5 -26.5t140.5 62.5t137.5 142.5t73 137l94 377q6 24 6 51 q0 34 -10 47t-29 13q-20 0 -20 24q0 28 29.5 39.5t62.5 11.5h141q21 0 21 -30q0 -3 -15 -66l-180 -725q-87 -348 -205 -481q-91 -104 -201.5 -148.5t-203.5 -44.5q-152 0 -234 48.5t-82 140.5z" />
<glyph unicode="z" horiz-adv-x="917" d="M16 25q0 15 5 27.5t10 19.5t20 24.5t23 26.5l626 797h-159q-73 0 -113 -11t-86 -41q-26 -17 -48.5 -50.5t-39.5 -57t-35 -23.5q-22 0 -22 45q0 38 16 99q17 69 37.5 91.5t60.5 22.5h533h6q37 0 47 -3t10 -19q0 -23 -47 -88l-633 -809h123q110 0 174.5 12t110.5 49 q26 21 55 57t48.5 59t31.5 23q18 0 24.5 -8.5t6.5 -27.5q0 -21 -19 -77.5t-41 -99.5q-19 -37 -41.5 -53t-58.5 -16q-28 0 -84.5 3t-118.5 3h-370q-2 0 -9.5 -0.5t-11.5 0t-11 1.5t-10.5 3.5t-6.5 8t-3 12.5z" />
<glyph unicode="{" horiz-adv-x="700" d="M111 526l14 72q52 0 90 20q37 19 70 64q18 24 45 116t57 211.5t39 149.5q3 9 14.5 49t15.5 50.5t15.5 42t20.5 45.5t24.5 37.5t34 41t41.5 35.5q51 39 190 68l2 -55q-99 -6 -141 -78q-30 -42 -100 -320q-82 -320 -140 -387q-59 -94 -225 -123v-14q59 -14 88.5 -29 t52.5 -43q41 -57 41 -127q0 -50 -16 -116l-88 -347q-16 -68 -16 -112q0 -45 23 -83.5t69 -51.5l-10 -45q-99 21 -154 73q-55 50 -55 152q0 49 30 160q7 27 35 113.5t44 155t16 124.5q0 133 -127 151z" />
<glyph unicode="|" horiz-adv-x="368" d="M215 -444v2086h115v-2086h-115z" />
<glyph unicode="}" horiz-adv-x="700" d="M-14 -350q99 6 141 78q30 42 100 319q82 320 140 387q59 94 225 123v14q-59 14 -88.5 29t-52.5 43q-41 57 -41 127q0 51 16 117l88 346q16 68 16 113t-23 83.5t-69 51.5l11 45q96 -21 153 -74q55 -50 55 -152q0 -48 -30 -159q-7 -27 -35 -113.5t-44 -155t-16 -124.5 q0 -134 127 -152l-14 -72q-52 0 -90 -20q-37 -19 -70 -64q-18 -24 -45 -116t-57 -211.5t-39 -149.5q-3 -9 -14.5 -49t-15.5 -50.5t-15.5 -42t-20.5 -45.5t-24.5 -37.5t-34 -41t-41.5 -35.5q-51 -39 -190 -68z" />
<glyph unicode="~" horiz-adv-x="1159" d="M252 1126q64 82 143 138q98 69 201 69q52 0 91 -14t108 -62q115 -77 188 -77q89 -3 207 151l35 -33q-156 -211 -303 -211q-75 0 -115 23q-39 14 -145 82q-17 8 -37 19t-30 15.5t-29 8.5t-46 4q-114 0 -237 -147z" />
<glyph unicode="&#xa3;" horiz-adv-x="1179" d="M82 113q0 69 48.5 104t115.5 35q52 0 141 -37q12 59 12 117q0 47 -8 108.5t-16.5 106.5t-30.5 149h-211v84h191q-23 165 -23 203q0 210 113 346.5t280 136.5q110 0 189.5 -63t79.5 -143q0 -36 -20.5 -64.5t-61.5 -28.5q-31 0 -51 10t-28 28.5t-10.5 33t-3.5 34.5v5 q-2 56 -32 89.5t-88 33.5q-32 0 -62 -13t-58.5 -42t-45.5 -87t-17 -137q0 -77 8.5 -146t32.5 -196h289v-84h-280q24 -101 24 -262q0 -121 -67 -248q137 -59 214 -83.5t134 -24.5q120 0 196 86l35 -27q-111 -180 -305 -180q-61 0 -138 30t-200 105q-51 -64 -94 -91.5 t-111 -27.5t-104.5 39.5t-36.5 100.5zM174 102q0 -26 21.5 -43.5t46.5 -17.5q33 0 70 24t50 72q-23 16 -58.5 29.5t-57.5 13.5q-31 0 -51.5 -23t-20.5 -55z" />
<glyph unicode="&#xa4;" horiz-adv-x="1273" d="M158 174l164 164q-105 133 -105 293q0 158 105 291l-164 163l67 70l164 -166q133 105 291 105q160 0 293 -105l164 166l69 -70l-166 -163q105 -133 105 -291q0 -160 -105 -293l166 -164l-69 -70l-164 166q-131 -104 -293 -104q-160 0 -291 104l-164 -166zM313 631 q0 -155 108 -266t259 -111t259 111t108 266t-108 265t-259 110t-259 -110t-108 -265z" />
<glyph unicode="&#xa7;" horiz-adv-x="978" d="M4 -188q0 81 37.5 131.5t103.5 50.5q68 0 68 -72q0 -26 -27.5 -64.5t-27.5 -72.5q0 -38 32.5 -71t75.5 -33q96 0 162 62.5t66 174.5q0 43 -22.5 82.5t-78.5 110.5l-188 231q-105 128 -64 299q29 114 103 186q99 95 174 127q-58 114 -21 269q26 116 118 192t237 76 q108 0 171.5 -65.5t63.5 -145.5q0 -66 -40 -112t-79 -46q-69 0 -69 72q0 23 20.5 55.5t20.5 59.5q0 106 -109 106q-76 0 -136.5 -37t-78.5 -106q-27 -110 76 -230l199 -233q126 -146 83 -317q-24 -104 -104 -193q-85 -89 -182 -141q41 -65 41 -158q0 -74 -33.5 -146.5 t-87.5 -126t-124.5 -87.5t-141.5 -35q-104 -3 -171 50t-67 157zM270 729q-20 -77 4 -129q17 -55 68 -121l201 -262q67 39 99.5 60.5t66 58t41.5 76.5q15 68 -15 129q-15 35 -84 127l-184 241q-85 -45 -134.5 -87.5t-62.5 -92.5z" />
<glyph unicode="&#xa8;" horiz-adv-x="538" d="M236 1266q0 57 34.5 94t81.5 37q36 0 59 -26t23 -66q0 -49 -35 -87t-80 -38q-35 0 -59 25t-24 61zM487 1266q0 57 35.5 94t81.5 37q36 0 59 -26t23 -66q0 -50 -34.5 -87.5t-80.5 -37.5q-35 0 -59.5 25.5t-24.5 60.5z" />
<glyph unicode="&#xa9;" horiz-adv-x="1628" d="M100 721q0 232 99.5 411.5t278.5 277t409 97.5q177 0 325.5 -60.5t249 -166t156 -249.5t55.5 -310q0 -169 -55.5 -313.5t-156 -248.5t-248.5 -163t-326 -59q-230 0 -409 97.5t-278.5 276t-99.5 410.5zM172 721q0 -155 55.5 -288.5t151.5 -227t227.5 -146.5t280.5 -53 q210 0 373 89.5t253.5 252.5t90.5 373q0 148 -53 279.5t-146 228t-227.5 153t-290.5 56.5q-199 0 -362 -90.5t-258 -255t-95 -371.5zM485 737q0 132 50 239t146 171.5t222 64.5q136 0 215 -47q21 -12 32 -21t22.5 -30.5t11.5 -50.5q0 -43 -16 -99.5t-50 -56.5 q-18 0 -27.5 12.5t-15.5 43.5q-9 37 -20 53q-24 62 -60.5 94.5t-109.5 32.5q-105 0 -178.5 -103t-73.5 -252q0 -91 17 -164.5t44.5 -120t64 -78.5t72.5 -45t72 -13q138 0 215 104q3 4 10 14.5t11 15.5t9.5 11.5t11 9t11.5 2.5q35 0 35 -35q0 -18 -20 -52t-57.5 -73 t-106.5 -67.5t-152 -28.5q-57 0 -111 16t-104 52t-87.5 89.5t-60 133.5t-22.5 178z" />
<glyph unicode="&#xab;" horiz-adv-x="856" d="M80 504l555 444l20 -30l-362 -422l162 -387l-31 -25zM434 504l408 366l18 -30l-254 -332l88 -344l-28 -23z" />
<glyph unicode="&#xac;" horiz-adv-x="1400" d="M168 719v100h1184v-411h-115v311h-1069z" />
<glyph unicode="&#xad;" horiz-adv-x="796" d="M147 449v112h537v-112h-537z" />
<glyph unicode="&#xae;" horiz-adv-x="1619" d="M80 721q0 174 57.5 321t160.5 249t249 159t319 57q236 0 416.5 -104t275.5 -282t95 -400q0 -226 -95 -403.5t-275 -279t-417 -101.5q-172 0 -318.5 57t-249.5 159t-160.5 248t-57.5 320zM152 721q0 -155 55.5 -288.5t151 -227t227 -146.5t280.5 -53q210 0 373 89.5 t253.5 252.5t90.5 373q0 148 -53 279.5t-146 228t-227.5 153t-290.5 56.5q-199 0 -362 -90.5t-257.5 -255t-94.5 -371.5zM545 319q0 16 4.5 22.5t23.5 6.5q27 0 27 51v670q0 47 -27 47q-19 0 -23.5 7t-4.5 26q0 37 59 37h127q26 0 90 1t103 1q31 0 59.5 -3t70 -16.5t71 -36 t51.5 -67t22 -104.5q0 -95 -57 -171.5t-176 -103.5q3 -4 52 -69t79 -111q31 -45 62.5 -78.5t50 -46.5t30.5 -24t12 -21q0 -25 -27.5 -46.5t-78.5 -21.5q-44 0 -88 45t-107 142q-139 208 -147 213q-7 4 -60 10v-279q0 -51 21 -51q22 0 28.5 -7t6.5 -22q0 -38 -68 -38h-127 q-59 0 -59 38zM743 774q0 -9 7 -15t24 -8t28 -2.5t36 -0.5h14q100 0 147.5 51t47.5 135q0 90 -47 133t-144 43h-24.5t-21 0.5t-17.5 0t-15 -1t-11.5 -1.5t-9.5 -3.5t-6.5 -5.5t-4.5 -7t-2 -10t-1 -13v-295z" />
<glyph unicode="&#xb0;" horiz-adv-x="714" d="M90 1225q0 115 80.5 195.5t196.5 80.5q115 0 195.5 -80.5t80.5 -195.5q0 -116 -80.5 -196.5t-195.5 -80.5t-196 81t-81 196zM186 1225q0 -73 53.5 -127t127.5 -54q75 0 127.5 53t52.5 128t-52.5 127.5t-127.5 52.5t-128 -52.5t-53 -127.5z" />
<glyph unicode="&#xb1;" horiz-adv-x="1325" d="M164 172v123h1001v-123h-1001zM164 756v125l436 2l2 338h123v-338l440 -2v-125h-440v-328h-123l-2 328h-436z" />
<glyph unicode="&#xb4;" horiz-adv-x="942" d="M588 1141l125 202q6 9 19.5 32.5t19 32t18 24.5t22 21.5t23.5 11t31 5.5q45 0 63.5 -22t18.5 -49q0 -22 -8.5 -41.5t-25.5 -36.5t-28 -26.5t-30 -22.5l-218 -156z" />
<glyph unicode="&#xb6;" horiz-adv-x="985" d="M88 -375l313 1297q-102 0 -162.5 52.5t-60.5 143.5q0 164 94 258t256 94h590l-12 -67h-186l-431 -1778h-100l432 1782h-198l-433 -1782h-102z" />
<glyph unicode="&#xbb;" horiz-adv-x="856" d="M66 193l253 331l-88 344l29 23l232 -363l-408 -366zM270 115l363 422l-162 387l31 24l344 -420l-555 -444z" />
<glyph unicode="&#xf7;" horiz-adv-x="1124" d="M23 639v84h1079v-84h-1079zM473 367q0 37 25.5 62.5t62.5 25.5t62.5 -25.5t25.5 -62.5q0 -36 -26 -62t-62 -26q-35 0 -61.5 26.5t-26.5 61.5zM473 987q0 37 25.5 62.5t62.5 25.5t62.5 -25.5t25.5 -62.5q0 -35 -25.5 -60.5t-62.5 -25.5t-62.5 25.5t-25.5 60.5z" />
<glyph unicode="&#x2000;" horiz-adv-x="833" />
<glyph unicode="&#x2001;" horiz-adv-x="1667" />
<glyph unicode="&#x2002;" horiz-adv-x="833" />
<glyph unicode="&#x2003;" horiz-adv-x="1667" />
<glyph unicode="&#x2004;" horiz-adv-x="555" />
<glyph unicode="&#x2005;" horiz-adv-x="416" />
<glyph unicode="&#x2006;" horiz-adv-x="277" />
<glyph unicode="&#x2007;" horiz-adv-x="277" />
<glyph unicode="&#x2008;" horiz-adv-x="208" />
<glyph unicode="&#x2009;" horiz-adv-x="333" />
<glyph unicode="&#x200a;" horiz-adv-x="92" />
<glyph unicode="&#x2010;" horiz-adv-x="796" d="M147 449v112h537v-112h-537z" />
<glyph unicode="&#x2011;" horiz-adv-x="796" d="M147 449v112h537v-112h-537z" />
<glyph unicode="&#x2012;" horiz-adv-x="796" d="M147 449v112h537v-112h-537z" />
<glyph unicode="&#x2013;" horiz-adv-x="1345" d="M109 449v112h1163v-112h-1163z" />
<glyph unicode="&#x2014;" horiz-adv-x="1771" d="M184 449v112h1485v-112h-1485z" />
<glyph unicode="&#x2018;" horiz-adv-x="581" d="M260 1020q0 90 35.5 174.5t89.5 143.5t112 99t109 56l15 -41q-79 -35 -134 -98.5t-55 -136.5q0 -43 33 -100t33 -97q0 -52 -33.5 -87.5t-89.5 -35.5q-115 0 -115 123z" />
<glyph unicode="&#x2019;" horiz-adv-x="581" d="M170 926q79 35 133.5 98.5t54.5 136.5q0 43 -32.5 100t-32.5 97q0 52 33.5 87.5t89.5 35.5q114 0 114 -123q0 -90 -35.5 -174.5t-89.5 -143.5t-112 -99t-109 -56z" />
<glyph unicode="&#x201c;" horiz-adv-x="727" d="M260 1020q0 90 35.5 174.5t89.5 143.5t112 99t109 56l15 -41q-79 -35 -134 -98.5t-55 -136.5q0 -43 33 -100t33 -97q0 -52 -33.5 -87.5t-89.5 -35.5q-115 0 -115 123zM567 1020q0 90 35.5 174.5t89.5 143.5t112 99t109 56l15 -41q-79 -35 -134 -98.5t-55 -136.5 q0 -43 33 -100t33 -97q0 -52 -33.5 -87.5t-89.5 -35.5q-115 0 -115 123z" />
<glyph unicode="&#x201d;" horiz-adv-x="845" d="M-2 924q79 35 133.5 98.5t54.5 136.5q0 43 -32.5 100t-32.5 97q0 52 33.5 87.5t89.5 35.5q114 0 114 -123q0 -90 -35.5 -174.5t-89.5 -143.5t-112 -99t-109 -56zM305 924q79 35 134 98.5t55 136.5q0 43 -33 100t-33 97q0 52 33.5 87.5t89.5 35.5q115 0 115 -123 q0 -90 -35.5 -174.5t-90 -143.5t-112.5 -99t-109 -56z" />
<glyph unicode="&#x201e;" horiz-adv-x="727" d="M-61 -338q79 34 133.5 98.5t54.5 137.5q0 44 -33 100t-33 96q0 52 33.5 87.5t89.5 35.5q115 0 115 -123q0 -90 -35.5 -174.5t-89.5 -143.5t-112 -99t-109 -56zM246 -338q79 34 133.5 98.5t54.5 137.5q0 44 -32.5 99.5t-32.5 96.5q0 52 33.5 87.5t89.5 35.5 q114 0 114 -123q0 -90 -35.5 -174.5t-89.5 -143.5t-112 -99t-109 -56z" />
<glyph unicode="&#x2022;" horiz-adv-x="696" d="M94 586q0 110 78 188t188 78t188.5 -78t78.5 -188t-78.5 -188.5t-188.5 -78.5t-188 78.5t-78 188.5z" />
<glyph unicode="&#x2026;" horiz-adv-x="1542" d="M150 82q0 64 35.5 97.5t82.5 33.5q44 0 72.5 -29t28.5 -73q0 -59 -34.5 -93t-84.5 -34q-41 0 -70.5 24.5t-29.5 73.5zM682 82q0 64 36 97.5t83 33.5q44 0 72 -29t28 -73q0 -59 -34.5 -93t-84.5 -34q-41 0 -70.5 24.5t-29.5 73.5zM1214 82q0 64 36 97.5t83 33.5 q44 0 72.5 -29t28.5 -73q0 -59 -34.5 -93t-84.5 -34q-41 0 -71 24.5t-30 73.5z" />
<glyph unicode="&#x202f;" horiz-adv-x="333" />
<glyph unicode="&#x205f;" horiz-adv-x="416" />
<glyph unicode="&#x20ac;" d="M61 596q8 55 41 84q28 24 58 29q9 52 24 100h-123q8 55 41 84q33 33 99 33h22q46 114 121 215.5t167.5 178.5t204 122t224.5 45q78 0 141.5 -19.5t106.5 -67.5t43 -118q0 -49 -13 -100t-36 -84q-28 -43 -58 -43q-24 0 -34 24.5t-27 104.5q-4 18 -6 28q-6 27 -10.5 43.5 t-18 43t-31.5 42t-50.5 27.5t-74.5 12q-72 0 -138 -24.5t-118 -66.5t-97 -100.5t-77.5 -123.5t-58.5 -139h479q-8 -55 -41 -84q-33 -33 -112 -33h-357q-12 -68 -16 -96h399q-8 -55 -39 -84q-36 -33 -114 -33h-256l-4 -51q-4 -75 -2.5 -134t15.5 -105t29.5 -80t39.5 -58 t46.5 -39t49.5 -24t49 -12t45 -3q85 0 175 47.5t159 116.5q11 10 25 24.5t20.5 21t15 13t15.5 9t16 2.5q35 0 35 -37q0 -42 -52 -101t-135 -116q-94 -63 -177 -85t-183 -22q-164 0 -269.5 131.5t-105.5 368.5q0 35 10 133h-82z" />
<glyph unicode="&#x2122;" horiz-adv-x="1765" d="M25 1356q0 19 0.5 28t2.5 21.5t6.5 18t13.5 10t22 4.5q11 0 36 -2t31 -2h438q7 0 32 2t36 2q31 0 40 -19.5t9 -62.5q0 -44 -9.5 -97t-29.5 -53q-16 0 -25.5 16.5t-18.5 48t-13 40.5q-24 45 -109 45h-61v-703q0 -53 27 -53q17 0 22.5 -5.5t5.5 -19.5q0 -18 -18.5 -27 t-40.5 -9h-129q-22 0 -39.5 9t-17.5 27q0 9 1 13.5t7 8t18 3.5q29 0 29 53v703h-66q-84 0 -108 -45q-4 -10 -13 -41t-18.5 -47.5t-24.5 -16.5q-36 0 -36 150zM735 575q0 25 27 25q11 0 20 15.5t9 46.5v659q0 19 -2 30.5t-8.5 15.5t-9 4.5t-11.5 0.5q-16 0 -20.5 6.5 t-4.5 22.5q0 33 58 33h125q19 0 33 -11t18 -23l4 -11l237 -652l260 664q0 1 0.5 3.5t4 8t9 10t17.5 8t29 3.5h102q62 0 62 -33q0 -29 -31 -29q-10 0 -17.5 -14.5t-7.5 -36.5v-668q0 -53 25 -53q31 0 31 -25q0 -18 -19.5 -27t-42.5 -9h-127q-55 0 -55 36v7v6t0.5 4t2.5 4 t4.5 2t7 1.5t10.5 0.5q30 0 30 53l2 633l-270 -690q-25 -70 -57 -70q-28 0 -50 58l-262 706l11 -628q0 -62 28 -62q11 0 21 -8t10 -17q0 -36 -59 -36h-86q-22 0 -40 9t-18 27z" />
<glyph unicode="&#x25fc;" horiz-adv-x="993" d="M0 0v993h993v-993h-993z" />
</font>
</defs>
</svg>
